<mxfile host="Electron" agent="Mozilla/5.0 (Windows NT 10.0; Win64; x64) AppleWebKit/537.36 (KHTML, like Gecko) draw.io/24.7.17 Chrome/128.0.6613.36 Electron/32.0.1 Safari/537.36" version="24.7.17">
  <diagram name="基本访问关系" id="e6Z8ryce-fjTPocQFP1j">
    <mxGraphModel dx="740" dy="499" grid="1" gridSize="10" guides="1" tooltips="1" connect="1" arrows="1" fold="1" page="1" pageScale="1" pageWidth="827" pageHeight="1169" math="0" shadow="0">
      <root>
        <mxCell id="0" />
        <mxCell id="1" parent="0" />
        <mxCell id="0WNuJ_JvVubOyZbFS2ZN-4" style="rounded=0;orthogonalLoop=1;jettySize=auto;html=1;exitX=0;exitY=0;exitDx=0;exitDy=0;entryX=0;entryY=0;entryDx=0;entryDy=0;fillColor=#dae8fc;strokeColor=#6c8ebf;" edge="1" parent="1" source="0WNuJ_JvVubOyZbFS2ZN-1" target="0WNuJ_JvVubOyZbFS2ZN-2">
          <mxGeometry relative="1" as="geometry" />
        </mxCell>
        <mxCell id="0WNuJ_JvVubOyZbFS2ZN-5" style="rounded=0;orthogonalLoop=1;jettySize=auto;html=1;entryX=0;entryY=0;entryDx=0;entryDy=0;exitX=1;exitY=1;exitDx=0;exitDy=0;fillColor=#dae8fc;strokeColor=#6c8ebf;" edge="1" parent="1" source="0WNuJ_JvVubOyZbFS2ZN-1" target="0WNuJ_JvVubOyZbFS2ZN-3">
          <mxGeometry relative="1" as="geometry" />
        </mxCell>
        <mxCell id="0WNuJ_JvVubOyZbFS2ZN-17" style="rounded=0;orthogonalLoop=1;jettySize=auto;html=1;entryX=0;entryY=0.5;entryDx=0;entryDy=0;exitX=1;exitY=0.5;exitDx=0;exitDy=0;fillColor=#dae8fc;strokeColor=#6c8ebf;" edge="1" parent="1" source="0WNuJ_JvVubOyZbFS2ZN-1" target="0WNuJ_JvVubOyZbFS2ZN-11">
          <mxGeometry relative="1" as="geometry" />
        </mxCell>
        <mxCell id="0WNuJ_JvVubOyZbFS2ZN-1" value="qml" style="rounded=1;whiteSpace=wrap;html=1;fillColor=#60a917;fontColor=#ffffff;strokeColor=#2D7600;" vertex="1" parent="1">
          <mxGeometry x="129" y="223" width="120" height="60" as="geometry" />
        </mxCell>
        <mxCell id="0WNuJ_JvVubOyZbFS2ZN-9" style="rounded=0;orthogonalLoop=1;jettySize=auto;html=1;entryX=1;entryY=0;entryDx=0;entryDy=0;exitX=0;exitY=1;exitDx=0;exitDy=0;fillColor=#f5f5f5;strokeColor=#666666;dashed=1;" edge="1" parent="1" source="0WNuJ_JvVubOyZbFS2ZN-2" target="0WNuJ_JvVubOyZbFS2ZN-1">
          <mxGeometry relative="1" as="geometry" />
        </mxCell>
        <mxCell id="0WNuJ_JvVubOyZbFS2ZN-12" style="rounded=0;orthogonalLoop=1;jettySize=auto;html=1;entryX=1;entryY=0;entryDx=0;entryDy=0;exitX=1;exitY=0;exitDx=0;exitDy=0;" edge="1" parent="1" source="0WNuJ_JvVubOyZbFS2ZN-2" target="0WNuJ_JvVubOyZbFS2ZN-11">
          <mxGeometry relative="1" as="geometry" />
        </mxCell>
        <mxCell id="0WNuJ_JvVubOyZbFS2ZN-2" value="c++" style="rounded=1;whiteSpace=wrap;html=1;fillColor=#1ba1e2;fontColor=#ffffff;strokeColor=#006EAF;" vertex="1" parent="1">
          <mxGeometry x="279" y="100" width="120" height="60" as="geometry" />
        </mxCell>
        <mxCell id="0WNuJ_JvVubOyZbFS2ZN-6" style="rounded=0;orthogonalLoop=1;jettySize=auto;html=1;exitX=0;exitY=1;exitDx=0;exitDy=0;entryX=0.029;entryY=0.99;entryDx=0;entryDy=0;entryPerimeter=0;fillColor=#dae8fc;strokeColor=#6c8ebf;" edge="1" parent="1" source="0WNuJ_JvVubOyZbFS2ZN-3" target="0WNuJ_JvVubOyZbFS2ZN-1">
          <mxGeometry relative="1" as="geometry">
            <mxPoint x="309" y="550" as="sourcePoint" />
          </mxGeometry>
        </mxCell>
        <mxCell id="0WNuJ_JvVubOyZbFS2ZN-15" style="rounded=0;orthogonalLoop=1;jettySize=auto;html=1;entryX=0;entryY=1;entryDx=0;entryDy=0;exitX=1;exitY=0;exitDx=0;exitDy=0;fillColor=#dae8fc;strokeColor=#6c8ebf;" edge="1" parent="1" source="0WNuJ_JvVubOyZbFS2ZN-3" target="0WNuJ_JvVubOyZbFS2ZN-11">
          <mxGeometry relative="1" as="geometry" />
        </mxCell>
        <mxCell id="0WNuJ_JvVubOyZbFS2ZN-3" value="js" style="rounded=1;whiteSpace=wrap;html=1;fillColor=#e3c800;fontColor=#000000;strokeColor=#B09500;" vertex="1" parent="1">
          <mxGeometry x="429" y="470" width="120" height="60" as="geometry" />
        </mxCell>
        <mxCell id="0WNuJ_JvVubOyZbFS2ZN-16" style="rounded=0;orthogonalLoop=1;jettySize=auto;html=1;entryX=1;entryY=1;entryDx=0;entryDy=0;exitX=0;exitY=0;exitDx=0;exitDy=0;" edge="1" parent="1" source="0WNuJ_JvVubOyZbFS2ZN-11" target="0WNuJ_JvVubOyZbFS2ZN-2">
          <mxGeometry relative="1" as="geometry" />
        </mxCell>
        <mxCell id="0WNuJ_JvVubOyZbFS2ZN-11" value="JSON" style="rounded=1;whiteSpace=wrap;html=1;fillColor=#f0a30a;fontColor=#000000;strokeColor=#BD7000;" vertex="1" parent="1">
          <mxGeometry x="579" y="347" width="120" height="60" as="geometry" />
        </mxCell>
      </root>
    </mxGraphModel>
  </diagram>
</mxfile>
